<svg width="21" height="16" viewBox="0 0 21 16" fill="none" xmlns="http://www.w3.org/2000/svg">
<path d="M10.6702 11.0035L7.41106 8.56492C7.68357 9.95985 8.96217 11.0183 10.5034 11.0183C10.5619 11.0192 10.6144 11.0067 10.6702 11.0035ZM10.5028 12.5218C7.89353 12.5218 5.77658 10.502 5.77658 8.04214C5.77658 7.82961 5.81235 7.62641 5.81268 7.42168L2.66778 5.02125C2.08455 5.76473 1.57583 6.58773 1.16426 7.48147C1.10157 7.61952 1.02083 7.85744 1.02083 8.01396C1.02083 8.16976 1.07213 8.4084 1.13469 8.54708C2.91522 12.4101 6.43854 14.9989 10.4722 14.9989C11.9643 14.9989 13.3857 14.6393 14.6766 13.9928L12.2314 12.1646C11.6876 12.3997 11.0968 12.5218 10.5028 12.5218ZM20.7035 14.685L17.3066 12.1458C18.3362 11.1454 19.2026 9.93105 19.8407 8.574C19.9032 8.43532 19.9545 8.19615 19.9545 8.04088C19.9545 7.88511 19.9033 7.64645 19.8407 7.50777C18.0601 3.64479 14.5368 1.0559 10.5031 1.0559C8.44557 1.0559 6.52522 1.74272 4.89731 2.92228L1.27388 0.160154C1.12947 0.0525603 0.958142 0 0.788786 0C0.555101 0 0.323024 0.0988597 0.168175 0.287657C-0.10053 0.614477 -0.0408939 1.08686 0.301691 1.34262L19.7021 15.8398C20.0467 16.0965 20.5414 16.038 20.8079 15.7122C21.1072 15.4144 21.0449 14.9417 20.7035 14.685ZM15.1995 8.01396C15.1995 8.79188 14.9794 9.51595 14.6103 10.1511L13.3451 9.20479C13.5171 8.83915 13.6239 8.44033 13.6239 8.01271C13.6239 6.38174 12.2126 5.00747 10.5026 5.00747C10.4271 5.00839 10.3196 5.02136 10.2249 5.03145C10.3978 5.32177 10.4732 5.6536 10.4732 6.01047C10.4732 6.32884 10.3892 6.62623 10.2494 6.89201L7.33885 4.69255C8.17447 3.96065 9.27922 3.50517 10.5034 3.50517C13.112 3.50611 15.1995 5.52838 15.1995 8.01396Z" fill="#616161"/>
</svg>
