<svg width="20" height="14" viewBox="0 0 20 14" fill="none" xmlns="http://www.w3.org/2000/svg">
<path d="M19.8792 6.46771C17.9962 2.61005 14.2684 0 10 0C5.73159 0 2.00276 2.61188 0.120815 6.46807C0.0413845 6.63305 0 6.81532 0 7.00018C0 7.18504 0.0413845 7.36731 0.120815 7.53229C2.0038 11.3899 5.73159 14 10 14C14.2684 14 17.9972 11.3881 19.8792 7.53193C19.9586 7.36695 20 7.18468 20 6.99982C20 6.81496 19.9586 6.63269 19.8792 6.46771ZM10 12.25C9.01109 12.25 8.04439 11.9421 7.22214 11.3652C6.3999 10.7883 5.75903 9.9684 5.38059 9.00909C5.00215 8.04978 4.90314 6.99418 5.09606 5.97578C5.28899 4.95738 5.76519 4.02191 6.46446 3.28769C7.16372 2.55346 8.05464 2.05345 9.02455 1.85088C9.99445 1.6483 10.9998 1.75227 11.9134 2.14963C12.8271 2.54699 13.6079 3.2199 14.1574 4.08326C14.7068 4.94661 15 5.96165 15 7C15.0003 7.68953 14.8712 8.37237 14.6201 9.00949C14.3689 9.6466 14.0006 10.2255 13.5363 10.7131C13.0719 11.2006 12.5206 11.5873 11.9138 11.8511C11.307 12.1148 10.6567 12.2503 10 12.25ZM10 3.5C9.70248 3.50437 9.40687 3.55084 9.12118 3.63818C9.35667 3.9742 9.46968 4.38772 9.43971 4.80373C9.40974 5.21974 9.23877 5.6107 8.95781 5.9057C8.67685 6.20071 8.30451 6.38022 7.90831 6.41169C7.51211 6.44316 7.11828 6.32451 6.79826 6.07724C6.61602 6.78219 6.64892 7.5294 6.89231 8.2137C7.13571 8.89799 7.57735 9.48492 8.15507 9.89186C8.73279 10.2988 9.4175 10.5053 10.1128 10.4822C10.8082 10.4591 11.4791 10.2077 12.0312 9.76329C12.5833 9.31887 12.9888 8.70385 13.1906 8.00479C13.3923 7.30573 13.3803 6.55783 13.156 5.86635C12.9318 5.17488 12.5066 4.57466 11.9405 4.15017C11.3744 3.72567 10.6957 3.49828 10 3.5Z" fill="#616161"/>
</svg>
