<svg width="84" height="84" viewBox="0 0 84 84" fill="none" xmlns="http://www.w3.org/2000/svg">
<path d="M65.3333 0H60.6667C57.8667 0 56 1.86667 56 4.66667C56 7.46667 57.8667 9.33333 60.6667 9.33333H65.3333C70.4667 9.33333 74.6667 13.5333 74.6667 18.6667V23.8C74.6667 26.6 76.5333 28.4667 79.3333 28.4667C82.1333 28.4667 84 26.6 84 23.8V18.6667C84 8.4 75.6 0 65.3333 0Z" fill="#5900CB"/>
<path d="M79.3333 56C76.5333 56 74.6667 57.8667 74.6667 60.6667V65.3333C74.6667 70.4667 70.4667 74.6667 65.3333 74.6667H60.6667C57.8667 74.6667 56 76.5333 56 79.3333C56 82.1333 57.8667 84 60.6667 84H65.3333C75.6 84 84 75.6 84 65.3333V60.6667C84 57.8667 82.1333 56 79.3333 56Z" fill="#5900CB"/>
<path d="M23.3333 74.6667H18.6667C13.5333 74.6667 9.33333 70.4667 9.33333 65.3333V60.6667C9.33333 57.8667 7.46667 56 4.66667 56C1.86667 56 0 57.8667 0 60.6667V65.3333C0 75.6 8.4 84 18.6667 84H23.3333C26.1333 84 28 82.1333 28 79.3333C28 76.5333 26.1333 74.6667 23.3333 74.6667Z" fill="#5900CB"/>
<path d="M4.66667 28C7.46667 28 9.33333 26.1333 9.33333 23.3333V18.6667C9.33333 13.5333 13.5333 9.33333 18.6667 9.33333H23.3333C26.1333 9.33333 28 7.46667 28 4.66667C28 1.86667 26.1333 0 23.3333 0H18.6667C8.4 0 0 8.4 0 18.6667V23.3333C0 25.6667 1.86667 28 4.66667 28Z" fill="#5900CB"/>
<path d="M79.3333 37.3333H4.66667C1.86667 37.3333 0 39.1999 0 41.9999C0 44.7999 1.86667 46.6666 4.66667 46.6666H79.3333C82.1333 46.6666 84 44.7999 84 41.9999C84 39.1999 82.1333 37.3333 79.3333 37.3333Z" fill="#5900CB"/>
</svg>
