<svg width="122" height="202" viewBox="0 0 122 202" fill="none" xmlns="http://www.w3.org/2000/svg">
<path d="M94.8889 0H88.1112C84.0445 0 81.3334 2.71111 81.3334 6.77778C81.3334 10.8444 84.0445 13.5556 88.1112 13.5556H94.8889C102.344 13.5556 108.444 19.6556 108.444 27.1111V34.5667C108.444 38.6333 111.156 41.3444 115.222 41.3444C119.289 41.3444 122 38.6333 122 34.5667V27.1111C122 12.2 109.8 0 94.8889 0Z" fill="#5900CB"/>
<path d="M115.222 81.3335C111.156 81.3335 108.444 84.0446 108.444 88.1113V94.8891C108.444 102.345 102.344 108.445 94.8889 108.445H88.1112C84.0445 108.445 81.3334 111.156 81.3334 115.222C81.3334 119.289 84.0445 122 88.1112 122H94.8889C109.8 122 122 109.8 122 94.8891V88.1113C122 84.0446 119.289 81.3335 115.222 81.3335Z" fill="#5900CB"/>
<path d="M33.8889 108.445H27.1111C19.6556 108.445 13.5556 102.345 13.5556 94.8891V88.1113C13.5556 84.0446 10.8444 81.3335 6.77778 81.3335C2.71111 81.3335 0 84.0446 0 88.1113V94.8891C0 109.8 12.2 122 27.1111 122H33.8889C37.9556 122 40.6667 119.289 40.6667 115.222C40.6667 111.156 37.9556 108.445 33.8889 108.445Z" fill="#5900CB"/>
<path d="M6.77778 40.6667C10.8444 40.6667 13.5556 37.9556 13.5556 33.8889V27.1111C13.5556 19.6556 19.6556 13.5556 27.1111 13.5556H33.8889C37.9556 13.5556 40.6667 10.8444 40.6667 6.77778C40.6667 2.71111 37.9556 0 33.8889 0H27.1111C12.2 0 0 12.2 0 27.1111V33.8889C0 37.2778 2.71111 40.6667 6.77778 40.6667Z" fill="#5900CB"/>
<path d="M115.222 54.2222H6.77778C2.71111 54.2222 0 56.9333 0 60.9999C0 65.0666 2.71111 67.7777 6.77778 67.7777H115.222C119.289 67.7777 122 65.0666 122 60.9999C122 56.9333 119.289 54.2222 115.222 54.2222Z" fill="#5900CB"/>
<path d="M22.05 152.25C25.8833 152.25 28.7333 152.983 30.6 154.45C32.4667 155.883 33.4 158.117 33.4 161.15V161.75C33.4 162.583 33.3 163.383 33.1 164.15C32.9 164.917 32.5667 165.633 32.1 166.3C31.6667 166.933 31.0833 167.5 30.35 168C29.65 168.467 28.7667 168.833 27.7 169.1C28.8 169.267 29.8 169.55 30.7 169.95C31.6 170.35 32.3667 170.9 33 171.6C33.6667 172.267 34.1667 173.083 34.5 174.05C34.8667 174.983 35.05 176.1 35.05 177.4V178.2C35.05 181.233 34.1167 183.6 32.25 185.3C30.3833 186.967 27.5 187.8 23.6 187.8H12.3C10.7 187.8 9.58333 187.5 8.95 186.9C8.35 186.3 8.05 185.217 8.05 183.65V156.4C8.05 154.833 8.35 153.75 8.95 153.15C9.58333 152.55 10.7 152.25 12.3 152.25H22.05ZM14.4 182.5H20.2C21.6 182.5 22.8167 182.45 23.85 182.35C24.9167 182.25 25.7833 182.033 26.45 181.7C27.15 181.333 27.6667 180.817 28 180.15C28.3333 179.483 28.5 178.6 28.5 177.5V176.85C28.5 176.017 28.3667 175.283 28.1 174.65C27.8333 174.017 27.3667 173.5 26.7 173.1C26.0333 172.7 25.1333 172.4 24 172.2C22.8667 172 21.45 171.9 19.75 171.9H14.4V182.5ZM14.4 166.7H19.6C21.0667 166.7 22.2667 166.633 23.2 166.5C24.1667 166.333 24.9167 166.067 25.45 165.7C26.0167 165.333 26.4 164.85 26.6 164.25C26.8 163.65 26.9 162.883 26.9 161.95V161.5C26.9 159.9 26.3 158.85 25.1 158.35C23.9333 157.817 22 157.55 19.3 157.55H14.4V166.7ZM55.1066 152.25C58.94 152.25 61.79 152.983 63.6566 154.45C65.5233 155.883 66.4566 158.117 66.4566 161.15V161.75C66.4566 162.583 66.3566 163.383 66.1566 164.15C65.9566 164.917 65.6233 165.633 65.1566 166.3C64.7233 166.933 64.14 167.5 63.4066 168C62.7066 168.467 61.8233 168.833 60.7566 169.1C61.8566 169.267 62.8566 169.55 63.7566 169.95C64.6566 170.35 65.4233 170.9 66.0566 171.6C66.7233 172.267 67.2233 173.083 67.5566 174.05C67.9233 174.983 68.1066 176.1 68.1066 177.4V178.2C68.1066 181.233 67.1733 183.6 65.3066 185.3C63.44 186.967 60.5566 187.8 56.6566 187.8H45.3566C43.7566 187.8 42.64 187.5 42.0066 186.9C41.4066 186.3 41.1066 185.217 41.1066 183.65V156.4C41.1066 154.833 41.4066 153.75 42.0066 153.15C42.64 152.55 43.7566 152.25 45.3566 152.25H55.1066ZM47.4566 182.5H53.2566C54.6566 182.5 55.8733 182.45 56.9066 182.35C57.9733 182.25 58.84 182.033 59.5066 181.7C60.2066 181.333 60.7233 180.817 61.0566 180.15C61.39 179.483 61.5566 178.6 61.5566 177.5V176.85C61.5566 176.017 61.4233 175.283 61.1566 174.65C60.89 174.017 60.4233 173.5 59.7566 173.1C59.09 172.7 58.19 172.4 57.0566 172.2C55.9233 172 54.5066 171.9 52.8066 171.9H47.4566V182.5ZM47.4566 166.7H52.6566C54.1233 166.7 55.3233 166.633 56.2566 166.5C57.2233 166.333 57.9733 166.067 58.5066 165.7C59.0733 165.333 59.4566 164.85 59.6566 164.25C59.8566 163.65 59.9566 162.883 59.9566 161.95V161.5C59.9566 159.9 59.3566 158.85 58.1566 158.35C56.99 157.817 55.0566 157.55 52.3566 157.55H47.4566V166.7ZM77.3633 151.95C78.2299 151.95 78.9799 152.167 79.6133 152.6C80.2466 153.033 80.5633 153.733 80.5633 154.7V185.35C80.5633 186.317 80.2466 187.017 79.6133 187.45C78.9799 187.883 78.2299 188.1 77.3633 188.1C76.4966 188.1 75.7466 187.883 75.1133 187.45C74.4799 187.017 74.1633 186.317 74.1633 185.35V154.7C74.1633 153.733 74.4799 153.033 75.1133 152.6C75.7466 152.167 76.4966 151.95 77.3633 151.95ZM103.365 151.7C105.732 151.7 107.749 151.95 109.415 152.45C111.115 152.95 112.549 153.6 113.715 154.4C114.482 154.933 114.899 155.583 114.965 156.35C115.032 157.117 114.832 157.833 114.365 158.5C113.899 159.167 113.315 159.583 112.615 159.75C111.949 159.917 111.299 159.8 110.665 159.4C109.699 158.8 108.615 158.333 107.415 158C106.249 157.667 104.899 157.5 103.365 157.5C101.699 157.5 100.249 157.7 99.0152 158.1C97.8152 158.467 96.8152 159.117 96.0152 160.05C95.2486 160.983 94.6819 162.217 94.3152 163.75C93.9486 165.283 93.7652 167.2 93.7652 169.5V170.55C93.7652 172.85 93.9486 174.767 94.3152 176.3C94.6819 177.833 95.2486 179.067 96.0152 180C96.8152 180.933 97.8319 181.6 99.0652 182C100.332 182.367 101.865 182.55 103.665 182.55C104.899 182.55 105.965 182.467 106.865 182.3C107.799 182.133 108.732 181.867 109.665 181.5V173.15H104.065C103.299 173.15 102.732 172.883 102.365 172.35C101.999 171.817 101.815 171.183 101.815 170.45C101.815 169.75 101.999 169.133 102.365 168.6C102.732 168.067 103.299 167.8 104.065 167.8H111.765C113.365 167.8 114.465 168.1 115.065 168.7C115.699 169.3 116.015 170.383 116.015 171.95V181.85C116.015 183.117 115.799 184.1 115.365 184.8C114.932 185.5 114.182 186.083 113.115 186.55C111.782 187.117 110.265 187.567 108.565 187.9C106.899 188.2 105.199 188.35 103.465 188.35C100.865 188.35 98.5486 188.05 96.5152 187.45C94.5152 186.817 92.8319 185.817 91.4652 184.45C90.0986 183.083 89.0652 181.3 88.3652 179.1C87.6652 176.9 87.3152 174.217 87.3152 171.05V169C87.3152 165.833 87.6652 163.15 88.3652 160.95C89.0652 158.75 90.0986 156.967 91.4652 155.6C92.8319 154.233 94.4986 153.25 96.4652 152.65C98.4652 152.017 100.765 151.7 103.365 151.7Z" fill="#5900CB"/>
</svg>
